<svg width="119" height="144" viewBox="0 0 119 144" fill="none" xmlns="http://www.w3.org/2000/svg">
<path opacity="0.5" d="M81.6 143.4C108.2 143.4 115 118.2 118.8 94.8L117.4 94.6C115.4 104.2 106.6 106.4 97.6 106.4C76.4 106.4 55.4 94.2 35.8 94.2C26.4 94.2 18 97 11.8 103.6C24.2 87.6 44.6 83.8 64.2 79C89.8 72.8 115.4 61.8 115.4 35.6C115.4 13 96.6 0.599976 54.4 0.599976C37.6 0.599976 1.6 5.19998 1.6 32.8C1.6 47.6 11.8 54.4 22.2 54.4C32.2 54.4 41.2 48.2 41.8 35.2C37.6 33 34.2 28.4 34.2 21.6C34.2 10.2 41.8 2.19997 54.2 2.19997C67.2 2.19997 73.4 13.2 73.4 25.6C73.4 46.4 60.6 61.6 45 72.6C23.2 88 -2.60001 103.8 0.399995 142H1.8C1.4 138.4 1.4 134.8 1.6 131.6C8 120.4 59.6 143.4 81.6 143.4Z" fill="#F2F2F2"/>
</svg>
