<svg width="123" height="144" viewBox="0 0 123 144" fill="none" xmlns="http://www.w3.org/2000/svg">
<path opacity="0.5" d="M46.4 65.6C69.2 65.6 79 88.2 79 107C79 123.8 71.4 141.8 54.2 141.8C41.8 141.8 32.6 133.8 32.6 122.4C32.6 115.6 36 111 40.2 108.8C39.6 95.8 30.6 89.6 20.6 89.6C10.2 89.6 0 96.4 0 111.2C0 138.8 36.4 143.4 53.2 143.4C98.2 143.4 122.4 129.6 122.4 103.8C122.4 71 83.4 64.8 55.8 64.8V64.4C79 63.2 113.2 58.4 113.2 30.8C113.2 5.99998 83 0.599976 54.8 0.599976C35.6 0.599976 6 5.39997 6 29.8C6 42.8 15.2 48.6 24.8 48.6C33.8 48.6 42 43.2 42.6 31.8C38.2 29.8 35.6 25 35.6 19.6C35.6 12 40.8 2.19997 53.8 2.19997C66.4 2.19997 72.8 11.4 72.8 27.8C72.8 47.2 64 64 45.4 64H39.8V65.6H46.4Z" fill="#F2F2F2"/>
</svg>
