<svg width="128" height="142" viewBox="0 0 128 142" fill="none" xmlns="http://www.w3.org/2000/svg">
<path opacity="0.5" d="M0 101.4H64.6V105.4C64.6 128.8 64.6 140 43 140V141.4H127.4V140C105.8 140 105.8 128.8 105.8 105.4V101.4H127.6V99.4H105.8V1.39999H83.8C79.8 12.4 73.4 25.6 64.6 37V99.4H48.6C54 89.2 59.6 65.8 59.6 44.6C59.6 21.2 52.6 0 30 0C14.6 0 8 10.2 8 20.6C8 30.6 14.2 39.6 27.2 40.2C30 33.6 36.4 30.8 42.8 30.8C50.2 30.8 57.8 35.2 57.8 45C57.8 65.6 18 94.8 0 99.8V101.4Z" fill="#F2F2F2"/>
</svg>
