<svg width="23" height="22" viewBox="0 0 23 22" fill="none" xmlns="http://www.w3.org/2000/svg">
<path d="M5.21576 6.97363H0.275696V21.4592H5.21576V6.97363Z" fill="black"/>
<path d="M21.4376 8.29654C20.4036 7.19779 19.025 6.63721 17.3247 6.63721C16.7043 6.63721 16.1299 6.70448 15.6014 6.86144C15.0959 7.01841 14.6594 7.22022 14.2917 7.4893C13.9471 7.75838 13.6484 8.00504 13.4416 8.25169C13.2348 8.47593 13.051 8.72259 12.8672 9.01409V6.95113H7.95007L7.97305 7.64626C7.97305 8.11715 7.99603 9.55225 7.99603 11.974C7.99603 14.3957 7.99603 17.535 7.97305 21.4367H12.8901V13.3642C12.8901 12.8709 12.9361 12.4673 13.051 12.1758C13.2578 11.6825 13.5794 11.2564 13.993 10.9201C14.4066 10.5837 14.9351 10.4268 15.5784 10.4268C16.4286 10.4268 17.072 10.7183 17.4626 11.3013C17.8761 11.8843 18.06 12.6915 18.06 13.7006V21.4367H22.977V13.14C23 11.0098 22.4945 9.39529 21.4376 8.29654Z" fill="black"/>
<path d="M2.78022 0C1.95305 0 1.28671 0.246658 0.781219 0.71755C0.252747 1.18844 0 1.77145 0 2.489C0 3.20655 0.252747 3.78956 0.758242 4.28287C1.26374 4.75377 1.90709 5.00042 2.73427 5.00042H2.75724C3.60739 5.00042 4.27373 4.75377 4.77922 4.28287C5.28472 3.81198 5.53746 3.20655 5.53746 2.489C5.53746 1.77145 5.26174 1.16602 4.77922 0.695126C4.27373 0.246658 3.60739 0 2.78022 0Z" fill="black"/>
</svg>
