<svg width="22" height="23" viewBox="0 0 22 23" fill="none" xmlns="http://www.w3.org/2000/svg">
<g clip-path="url(#clip0)">
<path d="M15.9305 0.974854H6.06953C2.71746 0.974854 0 3.62551 0 6.89518V16.5137C0 19.7834 2.71746 22.4341 6.06953 22.4341H15.9305C19.2825 22.4341 22 19.7834 22 16.5137V6.89518C22 3.62551 19.2825 0.974854 15.9305 0.974854ZM20.0473 16.5137C20.0473 18.7358 18.1923 20.5294 15.9305 20.5294H6.06953C3.79142 20.5294 1.95266 18.72 1.95266 16.5137V6.89518C1.95266 4.68895 3.80769 2.87952 6.06953 2.87952H15.9305C18.2086 2.87952 20.0473 4.68895 20.0473 6.89518V16.5137Z" fill="black"/>
<path d="M11 6.18091C7.87572 6.18091 5.32098 8.65697 5.32098 11.7044C5.32098 14.7519 7.85945 17.2438 11 17.2438C14.1242 17.2438 16.679 14.7678 16.679 11.7044C16.679 8.65697 14.1242 6.18091 11 6.18091ZM11 15.3392C8.94968 15.3392 7.27365 13.7202 7.27365 11.7203C7.28992 9.70454 8.94968 8.08557 11 8.08557C13.0503 8.08557 14.7263 9.70454 14.7263 11.7044C14.7263 13.7043 13.0503 15.3392 11 15.3392Z" fill="black"/>
<path d="M16.9068 4.56201C16.5325 4.56201 16.1583 4.70486 15.8979 4.97469C15.6376 5.22864 15.4749 5.5937 15.4749 5.95877C15.4749 6.32383 15.6213 6.68889 15.8979 6.94284C16.1583 7.1968 16.5325 7.35552 16.9068 7.35552C17.2811 7.35552 17.6553 7.21267 17.9157 6.94284C18.176 6.68889 18.3388 6.32383 18.3388 5.95877C18.3388 5.5937 18.1923 5.22864 17.9157 4.97469C17.6553 4.70486 17.2973 4.56201 16.9068 4.56201Z" fill="black"/>
</g>
<defs>
<clipPath id="clip0">
<rect width="22" height="21.4592" fill="white" transform="translate(0 0.974854)"/>
</clipPath>
</defs>
</svg>
