<svg width="1051" height="532" viewBox="0 0 1051 532" fill="none" xmlns="http://www.w3.org/2000/svg">
<path d="M1033.98 114.681V501.2H74.3893C59.9488 501.194 46.1018 494.307 35.8929 482.054C25.6839 469.801 19.949 453.186 19.949 435.862V386.597C19.9319 350.883 25.7827 315.515 37.1669 282.515C48.5511 249.516 65.2453 219.532 86.2952 194.278C107.345 169.024 132.338 148.996 159.844 135.338C187.35 121.68 216.83 114.661 246.599 114.681H1033.98Z" fill="#A6D1E2"/>
<path d="M214.642 523.856C240.23 523.856 260.974 498.97 260.974 468.271C260.974 437.572 240.23 412.686 214.642 412.686C189.054 412.686 168.31 437.572 168.31 468.271C168.31 498.97 189.054 523.856 214.642 523.856Z" fill="#213042"/>
<path d="M330.113 523.856C355.702 523.856 376.445 498.97 376.445 468.271C376.445 437.572 355.702 412.686 330.113 412.686C304.525 412.686 283.782 437.572 283.782 468.271C283.782 498.97 304.525 523.856 330.113 523.856Z" fill="#213042"/>
<path d="M727.412 523.856C753.001 523.856 773.744 498.97 773.744 468.271C773.744 437.572 753.001 412.686 727.412 412.686C701.824 412.686 681.081 437.572 681.081 468.271C681.081 498.97 701.824 523.856 727.412 523.856Z" fill="#213042"/>
<path d="M842.906 523.856C868.494 523.856 889.237 498.97 889.237 468.271C889.237 437.572 868.494 412.686 842.906 412.686C817.317 412.686 796.574 437.572 796.574 468.271C796.574 498.97 817.317 523.856 842.906 523.856Z" fill="#213042"/>
<path d="M239.488 68.6683H417.725V97.2801H239.488V68.6683ZM738.275 68.6683H916.512V97.2801H738.275V68.6683Z" fill="#425F87"/>
<path d="M1033 81.7516V468.193H71.484C57.0548 468.193 43.2153 461.323 33.0042 449.092C22.7931 436.861 17.045 420.269 17.0221 402.958V353.746C16.9964 318.023 22.8416 282.644 34.2233 249.634C45.605 216.623 62.2999 186.629 83.3529 161.367C104.406 136.104 129.404 116.069 156.917 102.408C184.43 88.7471 213.918 81.7277 243.694 81.7516H1033Z" fill="#D3DFE5"/>
<path d="M192.961 332.391H1013.25V361.419H192.961V332.391Z" fill="#FECB5C"/>
<path d="M397.497 145.062H252.323C230.471 145.062 212.756 166.315 212.756 192.531V232.146C212.756 258.362 230.471 279.615 252.323 279.615H397.497C419.349 279.615 437.064 258.362 437.064 232.146V192.531C437.064 166.315 419.349 145.062 397.497 145.062Z" fill="#77BDE6"/>
<path d="M899.991 145.062H754.817C732.965 145.062 715.25 166.315 715.25 192.531V232.146C715.25 258.362 732.965 279.615 754.817 279.615H899.991C921.844 279.615 939.559 258.362 939.559 232.146V192.531C939.559 166.315 921.844 145.062 899.991 145.062Z" fill="#77BDE6"/>
<path d="M98.4116 305.314L20.2309 307.915C27.0349 260.187 44.3284 215.502 70.3278 178.467C96.3271 141.431 130.091 113.388 168.137 97.228L168.31 218.906C168.346 241.398 161.059 263.017 148.002 279.158C134.946 295.298 117.152 304.683 98.4116 305.314Z" fill="#77BDE6"/>
<path d="M668.398 90.1531H481.553C481.278 90.1531 481.054 90.4209 481.054 90.7513V459.245C481.054 459.576 481.278 459.843 481.553 459.843H668.398C668.673 459.843 668.896 459.576 668.896 459.245V90.7513C668.896 90.4209 668.673 90.1531 668.398 90.1531Z" stroke="#ADADAD" stroke-miterlimit="10"/>
<path d="M574.976 90.1531V459.869" stroke="#ADADAD" stroke-miterlimit="10"/>
<path d="M529.012 103.158H526.909C510.098 103.158 496.47 119.509 496.47 139.677V256.96C496.47 277.129 510.098 293.479 526.909 293.479H529.012C545.824 293.479 559.452 277.129 559.452 256.96V139.677C559.452 119.509 545.824 103.158 529.012 103.158Z" fill="#77BDE6"/>
<path d="M624.451 103.158H622.348C605.536 103.158 591.908 119.509 591.908 139.677V256.96C591.908 277.129 605.536 293.479 622.348 293.479H624.451C641.262 293.479 654.891 277.129 654.891 256.96V139.677C654.891 119.509 641.262 103.158 624.451 103.158Z" fill="#77BDE6"/>
<path d="M614.434 208.762L650.229 146.492M225.179 219.921L260.973 157.677L225.179 219.921ZM243.065 239.897L278.86 177.627L243.065 239.897ZM356.26 241.067L392.055 178.824L356.26 241.067ZM374.168 261.044L409.942 198.774L374.168 261.044ZM727.412 219.921L763.207 157.677L727.412 219.921ZM745.321 239.897L781.094 177.627L745.321 239.897ZM858.516 241.067L894.311 178.824L858.516 241.067ZM876.402 261.044L912.197 198.774L876.402 261.044ZM72.0693 241.197L107.864 178.954L72.0693 241.197ZM80.8717 273.164L116.667 210.895L80.8717 273.164ZM500.112 188.786L535.907 126.542L500.112 188.786ZM518.02 208.762L553.793 146.492L518.02 208.762ZM596.548 188.786L632.343 126.542L596.548 188.786Z" stroke="white" stroke-miterlimit="10"/>
<path d="M840.412 484.033L822.092 491.837L804.531 449.699L782.59 407.64L778.254 394.479L765.093 341.807L754.101 289.135L745.321 228.556L784.845 225.955L786.492 233.758C788.313 242.483 788.942 251.505 788.357 260.471C787.48 274.227 787.909 288.058 789.636 301.698L792.953 327.995C796.262 354.53 803.8 380.052 815.154 403.166L818.233 409.461C823.718 420.593 825.626 430.269 829.312 442.286L840.412 484.033Z" fill="#239ECC"/>
<path d="M784.78 225.929L745.256 228.53L754.036 289.109L758.741 311.66L771.576 268.04C779.902 261.408 784.78 225.929 784.78 225.929Z" fill="#1170B5"/>
<path d="M811.148 264.599L827.144 251.102L965.591 487.259L949.595 500.756L811.148 264.599Z" stroke="#EDEFF4" stroke-miterlimit="10"/>
<path d="M811.859 236.958C812.258 239.964 813.416 242.751 815.176 244.943C816.852 246.599 818.398 248.436 819.794 250.431C831.198 267.806 828.575 277.404 826.038 281.644C825.863 281.873 825.642 282.043 825.395 282.138C825.149 282.234 824.886 282.251 824.633 282.188C824.38 282.125 824.144 281.984 823.95 281.78C823.755 281.575 823.608 281.313 823.523 281.02C821.659 274.049 814.374 263.671 811.859 262.448C809.344 261.226 810.016 268.275 810.298 270.902C810.322 271.082 810.316 271.266 810.278 271.443C810.24 271.62 810.172 271.786 810.079 271.93C809.985 272.074 809.868 272.194 809.734 272.281C809.6 272.368 809.452 272.421 809.301 272.436C808.224 272.503 807.165 272.085 806.33 271.266C805.196 270.339 804.268 269.094 803.625 267.639C802.983 266.184 802.646 264.563 802.645 262.916L802.796 241.848C802.796 241.113 802.73 240.381 802.601 239.663C803.038 240.314 803.58 240.853 804.195 241.246C804.81 241.64 805.484 241.88 806.179 241.952C807.418 242.197 808.69 241.868 809.736 241.033C810.782 240.198 811.525 238.918 811.816 237.452C811.845 237.289 811.86 237.124 811.859 236.958Z" fill="#D89F80"/>
<path d="M695.802 213.886C694.716 216.631 692.962 218.916 690.772 220.441C688.767 221.451 686.849 222.697 685.048 224.16C670.045 237.01 670.349 247.128 671.801 251.966C671.916 252.249 672.09 252.491 672.306 252.668C672.523 252.845 672.774 252.95 673.035 252.974C673.297 252.998 673.558 252.938 673.795 252.803C674.031 252.667 674.233 252.459 674.381 252.2C677.785 246.139 687.195 238.596 689.905 238.258C692.615 237.92 690.317 244.475 689.406 246.894C689.343 247.064 689.309 247.248 689.306 247.434C689.303 247.621 689.332 247.806 689.391 247.979C689.45 248.151 689.537 248.308 689.648 248.439C689.759 248.57 689.89 248.672 690.035 248.74C691.042 249.191 692.15 249.191 693.157 248.74C694.462 248.218 695.641 247.322 696.593 246.13C697.545 244.938 698.241 243.486 698.62 241.9L703.39 221.611C703.558 220.906 703.79 220.225 704.084 219.582C703.514 220.064 702.868 220.4 702.186 220.57C701.503 220.74 700.799 220.74 700.116 220.571C698.877 220.383 697.742 219.641 696.939 218.494C696.135 217.346 695.721 215.877 695.78 214.38L695.802 213.886Z" fill="#B5826B"/>
<path d="M722.968 419.449L690.447 499.822L672.018 491.811L735.391 218.88L784.78 225.929L783.891 238.596C783.484 244.5 781.971 250.218 779.463 255.321C776.955 260.424 773.518 264.781 769.408 268.066L735.153 384.49C731.646 396.411 727.578 408.082 722.968 419.449Z" fill="#239ECC"/>
<path d="M730.079 160.512L732.247 191.517L734.415 189.046L732.247 131.094L730.274 135.464C729.678 143.795 729.613 152.169 730.079 160.512Z" fill="#082AA3"/>
<path d="M702.632 225.929L693.092 217.554L732.096 131.12L734.285 189.046L702.632 225.929Z" fill="#448C4A"/>
<path d="M782.98 228.894C778.211 229.909 765.181 232.406 757.939 230.871L737.277 224.212C736.398 223.937 735.613 223.336 735.033 222.496C734.453 221.656 734.108 220.619 734.047 219.53L730.079 160.46C728.524 135.925 731.668 111.289 739.272 88.4365C739.775 86.9256 740.525 85.551 741.479 84.3939C742.432 83.2368 743.569 82.3207 744.822 81.6997L762.579 72.8301C764.01 72.111 765.564 71.8136 767.11 71.963C768.657 72.1123 770.151 72.704 771.468 73.6884C775.543 76.7426 778.903 80.9906 781.231 86.0324C783.56 91.0742 784.781 96.7441 784.78 102.508V226.293C784.787 226.913 784.61 227.515 784.28 227.992C783.95 228.469 783.489 228.789 782.98 228.894Z" fill="#4DA258"/>
<path d="M784.78 115.201V102.534V100.635L780.444 88.0463L767.284 107.398L782.113 167.977L784.845 180.228L784.78 115.201Z" fill="#448C4A"/>
<path d="M754.08 93.1443C751.533 93.1443 749.09 91.9303 747.288 89.7694C745.487 87.6085 744.475 84.6776 744.475 81.6216V45.7268H761.126L762.752 80.9713C763.056 87.578 759.587 93.1443 754.08 93.1443Z" fill="#D89F80"/>
<path d="M757.007 66.7175C758.138 66.7457 759.244 66.3175 760.148 65.5016C761.053 64.6857 761.702 63.5293 761.993 62.2176L761.234 45.7268H744.584V66.7175H757.007Z" fill="#B5826B"/>
<path d="M812.748 220.207L813.312 241.718L802.341 246.92L784.78 167.899L767.218 107.32L779.468 83.6245L787.707 101.208C803.152 138.224 811.697 178.83 812.748 220.207Z" fill="#4DA258"/>
<path d="M729.884 14.4879H761.993V54.4144C761.993 57.0979 761.105 59.6715 759.523 61.569C757.942 63.4665 755.796 64.5325 753.56 64.5325C747.234 64.5325 741.168 61.5181 736.696 56.1523C732.223 50.7866 729.711 43.5091 729.711 35.9207V14.4879H729.884Z" fill="#D89F80"/>
<path d="M761.039 34.2301H743.89C740.147 34.2358 736.518 32.6924 733.613 29.8603C730.736 27.0523 728.417 23.5109 726.823 19.4931C725.229 15.4754 724.401 11.0823 724.399 6.63273V0L729.342 3.12129C730.418 3.79887 731.595 4.21021 732.806 4.33085C734.016 4.4515 735.235 4.27899 736.388 3.82358L743.001 1.2225C744.927 0.426967 746.948 0.0140328 748.985 0L755.966 0C759.238 0 762.376 1.55929 764.689 4.33485C767.003 7.1104 768.302 10.8749 768.302 14.8001V17.115L766.893 28.1956C766.681 29.8753 765.973 31.4078 764.899 32.515C763.825 33.6222 762.456 34.2307 761.039 34.2301Z" fill="#330000"/>
<path d="M672.799 491.082C672.799 489.6 660.983 506.949 649.514 510.226C642.164 512.307 636.202 514.024 633.383 516.443C632.516 517.197 632.971 526.535 634.12 526.847L682.75 525.13C684.181 525.39 688.127 525.546 689.688 525.65C691.856 525.65 691.401 521.255 691.553 518.758C691.748 515.61 691.943 517.223 691.878 515.272C691.769 511.501 690.143 498.99 690.143 498.99L672.799 491.082ZM822.396 491.082C819.89 500.204 814.924 508.066 808.282 513.425C801.777 518.185 796.639 516.859 794.601 520.214C793.951 521.255 794.774 527.731 795.923 527.497L844.38 527.783C845.811 527.471 847.979 527.783 849.02 526.457C852.597 521.775 839.74 483.279 839.74 483.279L822.396 491.082Z" fill="#EDEFF4"/>
<path d="M896.915 310.956L869.126 334.404C861.291 341.015 859.407 353.995 864.917 363.395L947.237 503.813C952.748 513.213 963.567 515.474 971.403 508.862L999.191 485.414C1007.03 478.803 1008.91 465.823 1003.4 456.423L921.08 316.005C915.569 306.605 904.75 304.344 896.915 310.956Z" fill="#1170B5"/>
<path d="M962.28 530.098C966.471 530.098 969.868 526.022 969.868 520.995C969.868 515.967 966.471 511.891 962.28 511.891C958.089 511.891 954.691 515.967 954.691 520.995C954.691 526.022 958.089 530.098 962.28 530.098Z" fill="black"/>
<path d="M962.28 526.197C964.675 526.197 966.616 523.868 966.616 520.995C966.616 518.122 964.675 515.792 962.28 515.792C959.885 515.792 957.944 518.122 957.944 520.995C957.944 523.868 959.885 526.197 962.28 526.197Z" fill="#B4B4B5"/>
<path d="M347.588 184.156L280.378 191.959L293.386 41.0969H334.58L347.588 184.156Z" fill="#330000"/>
<path d="M316.758 181.685L344.769 246.53C345.093 247.28 345.312 248.088 345.42 248.922L347.371 263.541C347.489 264.637 347.826 265.684 348.355 266.59C348.884 267.496 349.588 268.234 350.406 268.743C350.688 268.952 351.004 269.089 351.333 269.142C351.661 269.196 351.996 269.166 352.314 269.055C352.507 268.952 352.661 268.768 352.749 268.538C352.837 268.309 352.852 268.048 352.791 267.806C352.358 266.038 351.339 261.304 352.921 261.694C354.504 262.084 359.989 268.066 361.789 272.566C361.861 272.748 361.975 272.901 362.117 273.009C362.259 273.116 362.423 273.173 362.591 273.173C362.759 273.173 362.923 273.116 363.065 273.009C363.207 272.901 363.321 272.748 363.393 272.566C364.542 269.263 365.214 262.162 356.607 252.096C355.582 250.945 354.455 249.934 353.247 249.079C352.336 248.35 350.905 246.477 349.626 241.067C348.433 236.229 340.216 209.152 337.701 199.45C330.157 170.084 316.346 151.226 318.189 177.237L316.758 181.685Z" fill="#B5826B"/>
<path d="M328.487 496.571L333.084 421.14L340.195 335.876L341.387 275.714C341.636 263.725 340.837 251.738 339.003 239.949L335.946 205.277L284.692 212.95L310.557 338.972C311.312 342.487 311.819 346.071 312.075 349.688L313.116 363.968C313.532 369.749 313.002 375.572 311.555 381.109C308.397 393.099 307.602 405.805 309.235 418.226L318.753 497.611L328.487 496.571Z" fill="#239ECC"/>
<path d="M311.641 225.721L333.322 208.268H316.238L287.185 212.612C286.513 213.366 285.863 214.12 285.234 214.901L302.839 300.736L314.026 255.061C316.715 247.778 305.246 247.466 309.3 241.145C314.525 233.004 307.977 235.007 311.641 225.721Z" fill="#1170B5"/>
<path d="M227.173 491.16L236.865 492.201L272.247 374.918C275.413 363.942 278.947 353.095 282.849 342.483L312.617 261.538C315.301 254.25 318.708 247.377 322.764 241.067C328.075 232.848 326.146 225.149 329.853 215.733C330.569 213.938 335.815 210.765 336.054 208.268H289.354C283.674 213.217 278.9 219.509 275.324 226.756C271.748 234.003 269.447 242.051 268.562 250.405L263.77 305.548L257.57 346.489C255.872 357.917 252.957 369.037 248.897 379.574C243.668 389.349 240.122 400.28 238.469 411.724L227.173 491.16Z" fill="#239ECC"/>
<path d="M214.252 370.132C215.682 350.989 217.786 331.923 220.756 312.909C222.201 303.441 223.993 294.034 226.133 284.687C227.211 279.966 228.506 275.32 230.013 270.771C230.807 268.434 231.734 266.166 232.789 263.983C233.376 262.809 234.043 261.695 234.783 260.653C235.219 260.082 235.698 259.559 236.214 259.093L237.103 258.39L238.23 257.87C239.041 257.623 239.889 257.607 240.706 257.824C241.523 258.041 242.287 258.484 242.935 259.119C243.43 259.643 243.894 260.208 244.323 260.809L245.342 262.552C246.424 264.786 247.31 267.148 247.987 269.601C249.285 274.257 250.328 279.01 251.109 283.829C252.67 293.349 253.819 302.895 254.643 312.441C256.399 331.585 257.223 350.806 257.57 370.002C255.532 350.963 253.58 331.897 251.304 312.961C250.068 303.519 248.854 294.077 247.098 284.817C246.284 280.232 245.249 275.707 243.998 271.266C243.376 269.196 242.592 267.201 241.656 265.309L240.962 264.113C240.702 263.801 240.464 263.488 240.225 263.254C240.108 263.121 239.967 263.021 239.813 262.962C239.659 262.903 239.496 262.888 239.336 262.916C238.076 263.805 237.059 265.116 236.409 266.688C235.446 268.639 234.606 270.673 233.894 272.774C232.377 277.066 231.184 281.592 230.013 286.118C227.694 295.196 225.851 304.481 224.008 313.793C220.561 332.495 217.352 351.301 214.252 370.132Z" fill="#ADA43A"/>
<path d="M241.656 256.83C242.546 255.536 243.541 254.351 244.626 253.292C244.626 253.292 245.45 249.235 245.927 247.154L260.345 184.728C260.849 182.676 261.95 180.91 263.449 179.751C264.947 178.592 266.743 178.118 268.508 178.414C270.274 178.71 271.892 179.758 273.068 181.366C274.244 182.973 274.899 185.034 274.914 187.173C274.907 187.992 274.805 188.807 274.611 189.592L252.648 252.304C251.941 254.335 251.622 256.53 251.716 258.729L252.063 266.818C252.053 267.913 251.828 268.991 251.406 269.962C250.984 270.934 250.377 271.773 249.635 272.41C249.377 272.663 249.078 272.85 248.757 272.957C248.436 273.065 248.1 273.091 247.77 273.034C247.567 272.962 247.393 272.803 247.282 272.587C247.17 272.372 247.128 272.114 247.163 271.864C247.38 270.043 247.857 265.179 246.339 265.829C244.821 266.48 240.052 273.295 238.772 278.054C238.728 278.252 238.636 278.429 238.508 278.564C238.38 278.699 238.222 278.786 238.053 278.814C237.884 278.842 237.712 278.809 237.559 278.72C237.405 278.631 237.277 278.49 237.19 278.315C235.694 275.141 234.22 268.222 241.656 256.83Z" fill="#D89F80"/>
<path d="M301.668 68.6683C304.099 68.6683 306.07 65.1165 306.07 60.735C306.07 56.3536 304.099 52.8018 301.668 52.8018C299.238 52.8018 297.267 56.3536 297.267 60.735C297.267 65.1165 299.238 68.6683 301.668 68.6683Z" fill="#D89F80"/>
<path d="M288.443 208.268H336.292C336.292 208.268 335.837 189.54 337.138 184.104L339.479 174.272C340.122 171.565 340.614 168.811 340.954 166.026L341.409 162.255C341.932 157.804 341.312 153.267 339.631 149.25L336.336 141.446C335.001 138.229 334.509 134.601 334.926 131.042L335.36 127.348C335.816 123.629 335.533 119.832 334.536 116.268L334.254 115.253C333.72 113.316 332.808 111.559 331.593 110.13C330.379 108.7 328.898 107.639 327.273 107.034L318.406 103.705L303.424 102.664H295.186C289.302 102.664 283.599 105.106 279.046 109.577C274.494 114.049 271.371 120.273 270.209 127.192L259.001 188.682L273.093 193.884C276.627 185.404 285.885 144.698 285.885 144.698L287.034 147.715C289.782 154.841 291.764 162.358 292.931 170.084L295.099 184.156C295.992 190.091 295.117 196.214 292.627 201.453L288.443 208.268Z" fill="#E0313E"/>
<path d="M318.406 103.549V69.1885H302.991V104.693C302.991 107.028 303.725 109.276 305.048 110.988C306.371 112.7 308.183 113.75 310.124 113.927H311.034C311.457 113.898 311.878 113.828 312.292 113.719C313.87 113.308 315.301 112.31 316.379 110.867C317.457 109.424 318.129 107.609 318.297 105.682C318.319 105.353 318.319 105.022 318.297 104.693V103.575L318.406 103.549Z" fill="#D89F80"/>
<path d="M302.991 69.1885H318.406V91.8698H317.538C311.034 91.8698 305.441 85.081 302.991 75.353V69.1885Z" fill="#B5826B"/>
<path d="M318.406 89.815C327.171 89.815 334.276 77.5058 334.276 62.3217C334.276 47.1375 327.171 34.8284 318.406 34.8284C309.641 34.8284 302.535 47.1375 302.535 62.3217C302.535 77.5058 309.641 89.815 318.406 89.815Z" fill="#D89F80"/>
<path d="M292.844 39.5623C292.844 50.3827 301.798 60.787 312.248 55.975C322.699 51.163 332.867 43.5159 334.276 39.042C337.463 28.9239 324.325 20.0022 313.116 20.0022C301.907 20.0022 292.844 28.7678 292.844 39.5623Z" fill="#330000"/>
<path d="M328.249 496.024C329.571 495.634 332.585 504.868 341.669 509.498C343.71 510.369 345.665 511.502 347.501 512.879C350.884 515.923 355.371 517.847 356.174 522.841C356.347 523.908 356.369 524.662 356.174 524.714L319.208 525.286C316.671 525.859 314.547 520.37 315.349 517.483L316.866 510.044C317.495 507.703 318.904 497.247 318.904 497.247L328.249 496.024ZM236.214 491.394C237.58 491.394 239.336 500.992 247.531 507.417C249.425 508.671 251.193 510.181 252.8 511.917C255.705 515.61 259.846 518.42 259.911 523.518C259.911 524.584 259.911 525.338 259.586 525.338L223.054 518.394C220.474 518.394 219.173 512.593 220.366 509.862L222.902 502.839C223.856 500.654 227.607 490.666 227.607 490.666L236.214 491.394Z" fill="#EDEFF4"/>
<path d="M167.638 350.625H308.563V417.264C308.563 426.494 305.507 435.346 300.066 441.873C294.626 448.4 287.248 452.066 279.554 452.066H196.647C188.953 452.066 181.575 448.4 176.135 441.873C170.694 435.346 167.638 426.494 167.638 417.264V350.625Z" fill="#E0313E"/>
<path d="M334.335 55.3241C336.68 54.739 337.691 49.1341 336.594 42.8052C335.496 36.4762 332.706 31.8199 330.362 32.405C328.017 32.9901 327.006 38.595 328.103 44.9239C329.2 51.2528 331.991 55.9092 334.335 55.3241Z" fill="#330000"/>
<path d="M1 528.798L1050 530.098" stroke="#F43B3B" stroke-width="3" stroke-miterlimit="10"/>
</svg>
