<svg width="25" height="21" viewBox="0 0 25 21" fill="none" xmlns="http://www.w3.org/2000/svg">
<path d="M24.999 3.26643C24.0253 3.66408 23.0273 3.92138 22.0535 4.03834C23.1733 3.40677 23.9036 2.49451 24.3174 1.32495C23.295 1.88634 22.1996 2.28399 21.0555 2.49451C20.0331 1.46529 18.7916 0.950684 17.3067 0.950684C15.8948 0.950684 14.6777 1.4419 13.6796 2.40095C12.6816 3.35999 12.1704 4.52956 12.1704 5.88626C12.1704 6.26052 12.2191 6.63478 12.2921 7.00904C10.1986 6.91547 8.22686 6.40087 6.40116 5.4886C4.57545 4.57634 3.01751 3.35999 1.72735 1.86295C1.26484 2.63486 1.02141 3.45356 1.02141 4.34243C1.02141 5.18452 1.21615 5.97982 1.62998 6.68156C2.0438 7.40669 2.60369 7.99148 3.28528 8.43591C2.45763 8.41252 1.67866 8.202 0.972723 7.80435V7.87452C0.972723 9.06748 1.36221 10.0967 2.14118 11.009C2.92014 11.8978 3.89385 12.4826 5.08665 12.7165C4.64848 12.8335 4.18597 12.8803 3.7478 12.8803C3.45568 12.8803 3.13923 12.8569 2.77409 12.8101C3.09054 13.7925 3.69911 14.6112 4.57545 15.2428C5.45179 15.8744 6.44984 16.2018 7.56961 16.2252C5.71956 17.6287 3.5774 18.3305 1.21615 18.3305C0.753638 18.3305 0.339812 18.3071 -0.0253296 18.2603C2.36026 19.7339 4.98928 20.4591 7.83738 20.4591C9.66308 20.4591 11.3671 20.1784 12.9737 19.6404C14.5803 19.079 15.9435 18.3538 17.0633 17.4182C18.183 16.4825 19.1811 15.4065 19.9844 14.2136C20.8121 12.9972 21.4206 11.7341 21.8101 10.4242C22.1996 9.11426 22.4187 7.78095 22.4187 6.47104C22.4187 6.19034 22.4187 5.97982 22.3943 5.83947C23.4411 5.11434 24.2931 4.27225 24.999 3.26643Z" fill="black"/>
</svg>
