<svg width="29" height="21" viewBox="0 0 29 21" fill="none" xmlns="http://www.w3.org/2000/svg">
<path d="M27.9856 8.41252C27.9856 7.87452 27.9376 7.17278 27.8417 6.33069C27.7698 5.4886 27.6499 4.74008 27.506 4.08512C27.3381 3.3366 26.9784 2.72843 26.4269 2.21382C25.8753 1.69921 25.2278 1.41851 24.4844 1.32495C22.1823 1.06764 18.6811 0.950684 14.0048 0.950684C9.32854 0.950684 5.82734 1.06764 3.52518 1.32495C2.78177 1.41851 2.13429 1.69921 1.58273 2.21382C1.03118 2.72843 0.671463 3.3366 0.503597 4.08512C0.335731 4.74008 0.239808 5.4886 0.143885 6.33069C0.0719424 7.17278 0.0239808 7.87452 0 8.41252C0 8.97391 0 9.72244 0 10.7049C0 11.6873 0 12.4358 0.0239808 12.9972C0.0239808 13.5352 0.0719424 14.237 0.167866 15.0791C0.215827 15.9211 0.335731 16.6697 0.479616 17.3246C0.647482 18.0731 1.00719 18.6813 1.55875 19.1959C2.11031 19.7105 2.75779 19.9912 3.5012 20.0848C5.80336 20.3421 9.30456 20.4591 13.9808 20.4591C18.6571 20.4591 22.1583 20.3421 24.4604 20.0848C25.2038 20.0146 25.8513 19.7105 26.4029 19.1959C26.9544 18.6813 27.3141 18.0731 27.482 17.3246C27.6499 16.6697 27.7458 15.9211 27.8417 15.0791C27.9137 14.237 27.9616 13.5352 27.9856 12.9972C27.9856 12.4592 28.0096 11.6873 28.0096 10.7049C28.0096 9.72244 28.0096 8.97391 27.9856 8.41252ZM19.5444 11.5236L11.5348 16.4124C11.3909 16.5059 11.223 16.5761 11.0072 16.5761C10.8393 16.5761 10.6954 16.5293 10.5276 16.4591C10.1918 16.272 10 15.9913 10 15.5937V5.83947C10 5.44182 10.1679 5.16112 10.5276 4.97399C10.8873 4.78686 11.223 4.81025 11.5348 4.99739L15.5396 7.44178L19.5444 9.88618C19.8561 10.0499 20.024 10.3306 20.024 10.7049C20 11.0791 19.8561 11.3598 19.5444 11.5236Z" fill="black"/>
</svg>
