<svg width="32" height="23" viewBox="0 0 32 23" fill="none" xmlns="http://www.w3.org/2000/svg">
<path d="M31.2002 19.5003H0.800143C0.358142 19.5003 0.000142131 19.836 0.000142131 20.2503V21.7503C0.000142131 22.1647 0.358142 22.5003 0.800143 22.5003H31.2002C31.6422 22.5003 32.0002 22.1647 32.0002 21.7503V20.2503C32.0002 19.836 31.6422 19.5003 31.2002 19.5003ZM4.02765 14.4974C4.34165 14.818 4.78265 14.9999 5.24415 14.9994L11.7711 14.991C12.2862 14.9903 12.7939 14.876 13.2532 14.6572L27.8012 7.73612C29.1382 7.10002 30.3367 6.19206 31.1522 5.00284C32.0677 3.66784 32.1672 2.70174 31.8057 2.01924C31.4452 1.33628 30.5687 0.834713 28.8932 0.732525C27.4007 0.641588 25.9162 1.01003 24.5792 1.64565L19.6537 3.98893L8.71865 0.142369C8.58717 0.0593337 8.43442 0.0107296 8.2762 0.0015821C8.11797 -0.00756536 7.96001 0.0230759 7.81865 0.0903378L4.53115 1.65456C3.99765 1.90815 3.86864 2.57565 4.27264 2.9919L12.0836 7.59034L6.92315 10.0456L3.30564 8.33612C3.18101 8.27721 3.04335 8.2466 2.90377 8.24676C2.7642 8.24693 2.62662 8.27786 2.50214 8.33706L0.495642 9.2919C-0.0263579 9.54034 -0.163858 10.1881 0.217142 10.6081L4.02765 14.4974Z" fill="black"/>
</svg>
